<svg id="HollowBeachBar_FINAL_LOGO" data-name="HollowBeachBar FINAL LOGO" xmlns="http://www.w3.org/2000/svg" width="284.837" height="298.8" viewBox="0 0 284.837 298.8">
  <g id="Group_1" data-name="Group 1" transform="translate(0.637 165.005)">
    <path id="Path_1" data-name="Path 1" d="M29.079,148.155V128.561H13.054v19.595H.55v-49h12.5v18.4H29.079V99.16h12.5v49Z" transform="translate(-0.55 -98.221)" fill="#fff"/>
    <path id="Path_2" data-name="Path 2" d="M29.07,125.151C29.07,110,40,98.6,54.884,98.6c14.3,0,25.881,11.063,25.881,25.093,0,14.5-11.247,25.746-25.294,25.746C41.843,149.456,29.07,139.65,29.07,125.151ZM68.26,124.1c0-7.677-5.5-14.5-13.376-14.5-7.811,0-13.309,6.554-13.309,14.3,0,8.079,5.5,14.566,13.51,14.566C62.829,138.46,68.26,131.906,68.26,124.1Z" transform="translate(18.735 -98.6)" fill="#fff"/>
    <path id="Path_3" data-name="Path 3" d="M64.14,148.155v-49H76.661v38h14.5v11Z" transform="translate(42.45 -98.221)" fill="#fff"/>
    <path id="Path_4" data-name="Path 4" d="M83.38,148.155v-49h12.5v38h14.5v11Z" transform="translate(55.46 -98.221)" fill="#fff"/>
    <path id="Path_5" data-name="Path 5" d="M100.76,125.151C100.76,110,111.689,98.6,126.574,98.6c14.3,0,25.881,11.063,25.881,25.093,0,14.5-11.247,25.746-25.294,25.746C113.533,149.456,100.76,139.65,100.76,125.151Zm39.19-1.056c0-7.677-5.5-14.5-13.376-14.5-7.811,0-13.309,6.554-13.309,14.3,0,8.079,5.5,14.566,13.51,14.566C134.519,138.46,139.95,131.906,139.95,124.1Z" transform="translate(67.212 -98.6)" fill="#fff"/>
    <path id="Path_6" data-name="Path 6" d="M171.421,148.155l-7.342-31.714h-.134L156.6,148.155H145.289l-12.639-49h12.706l6.554,31.848h.134l7.224-31.848h9.6l7.09,31.982h.134l6.688-31.982h12.639l-12.974,49Z" transform="translate(88.776 -98.221)" fill="#fff"/>
  </g>
  <g id="Group_2" data-name="Group 2" transform="translate(0 242.362)">
    <path id="Path_7" data-name="Path 7" d="M26.027,159.258c0-1.844-1.073-4.258-5.666-4.258H16.64v8.448h3.922C25.323,163.448,26.027,160.7,26.027,159.258Z" transform="translate(10.967 -137.819)" fill="#fff"/>
    <path id="Path_8" data-name="Path 8" d="M122.487,159.258c0-1.844-1.073-4.258-5.666-4.258H113.1v8.448h3.922C121.783,163.448,122.487,160.7,122.487,159.258Z" transform="translate(76.194 -137.819)" fill="#fff"/>
    <path id="Path_9" data-name="Path 9" d="M117.793,161.38H113.1V171h4.693c3.185,0,6.1-1.274,6.1-4.861C123.895,163.324,121.448,161.38,117.793,161.38Z" transform="translate(76.194 -133.505)" fill="#fff"/>
    <path id="Path_10" data-name="Path 10" d="M21.333,161.38H16.64V171h4.693c3.185,0,6.1-1.274,6.1-4.861C27.435,163.324,24.987,161.38,21.333,161.38Z" transform="translate(10.967 -133.505)" fill="#fff"/>
    <path id="Path_11" data-name="Path 11" d="M48.38,166.738H58l-4.76-11.4Z" transform="translate(32.43 -137.589)" fill="#fff"/>
    <path id="Path_12" data-name="Path 12" d="M130.12,166.738h9.621l-4.76-11.4Z" transform="translate(87.703 -137.589)" fill="#fff"/>
    <path id="Path_13" data-name="Path 13" d="M.17,144.75v56.438h284.8V144.75Zm32.5,39.743H25.3V159.685h6.37c5.2,0,7.979,2.85,7.979,6.6,0,2.045-.738,3.419-2.715,5a6.483,6.483,0,0,1,4.123,6.1C41.053,180.772,39.142,184.493,32.672,184.493Zm32.015-22.562h-11.1v8.917H64.318v2.246H53.591v9.152h11.1v2.246H51.11V159.685H64.687ZM95.16,184.493l-3.587-8.347H80.041l-3.621,8.347H73.839l10.594-24.808h2.783l10.661,24.808Zm24.2.436a12.824,12.824,0,1,1-.034-25.646c4.593,0,9.387,2.648,11.365,6.772h-2.783a10.486,10.486,0,0,0-8.616-4.526,10.577,10.577,0,1,0,8.716,16.46H130.8A13.129,13.129,0,0,1,119.365,184.929Zm39.894-.436h-2.481V172.86h-12.84v11.633h-2.481V159.685h2.481v10.929h12.84V159.685h2.481Zm35.1,0h-7.375V159.685h6.37c5.2,0,7.979,2.85,7.979,6.6,0,2.045-.738,3.419-2.715,5a6.483,6.483,0,0,1,4.123,6.1C202.739,180.772,200.828,184.493,194.358,184.493Zm37.815,0-3.587-8.347H217.054l-3.621,8.347h-2.581l10.594-24.808h2.782l10.661,24.808Zm28.6,0h-3.118l-8.415-11.231h2.414c4.392,0,7.007-2.246,7.007-5.632,0-2.347-1.442-5.7-7.141-5.7H246.79v22.562h-2.481V159.685h7.476c6.47,0,9.353,3.822,9.353,8.012,0,4.023-3.017,7.208-7.375,7.543Z" transform="translate(-0.17 -144.75)" fill="#fff"/>
  </g>
  <g id="Group_3" data-name="Group 3" transform="translate(0.034)">
    <path id="Path_14" data-name="Path 14" d="M76.023,88.027a72.712,72.712,0,0,1,44.285-18.354V.16a141.939,141.939,0,0,0-93.448,38.7Z" transform="translate(17.844 -0.16)" fill="#fff"/>
    <path id="Path_15" data-name="Path 15" d="M87.66.16V69.689a72.671,72.671,0,0,1,44.285,18.354L181.108,38.88A141.873,141.873,0,0,0,87.66.16Z" transform="translate(58.957 -0.16)" fill="#fff"/>
    <path id="Path_16" data-name="Path 16" d="M.19,120.285H69.719A72.671,72.671,0,0,1,88.073,76L38.91,26.82A141.95,141.95,0,0,0,.19,120.285Z" transform="translate(-0.19 17.868)" fill="#fff"/>
    <path id="Path_17" data-name="Path 17" d="M166.813,26.82,117.65,75.983A72.712,72.712,0,0,1,136,120.268h69.529A141.942,141.942,0,0,0,166.813,26.82Z" transform="translate(79.237 17.868)" fill="#fff"/>
  </g>
</svg>
